DBRep_DrawableShape

CASCADE Topology V1, (c) Matra-Datavision
Locations 16
1
              1               0               0               0 
              0               1               0               0 
              0               0               1               0 
1
              1               0               0               0 
              0               1               0               0 
              0               0               1               0 
2  1 -1 2 -1 0
1
              1               0               0         19414.8 
              0               1               0         22187.6 
              0               0               1             100 
2  4 -1 0
2  1 -1 2 -1 4 -1 0
1
              1               0               0               0 
              0               1               0               0 
              0               0               1             600 
2  4 1 7 1 0
2  7 -1 4 -1 0
2  1 -1 2 -1 7 -1 4 -1 0
2  4 1 2 1 0
2  4 1 7 1 2 1 0
2  2 -1 0
2  1 -1 0
2  2 -1 4 -1 0
2  2 -1 7 -1 4 -1 0
Curve2ds 48
1 0 0 0 -1 
1 2050.0320152099994 0 0 -1 
1 599.99999999599822 0 0 -1 
1 0 -0 0 -1 
1 0 0 1 0 
1 1025.0160076049999 -299.99999999800002 0 1 
1 0 -600 1 0 
1 1025.0160076049999 -299.99999999800002 0 1 
1 2050.0320152099994 0 0 -1 
1 0 0 0 -1 
1 0 -0 1 0 
1 1025.0160076049999 299.99999999800002 -1 0 
1 0 -600 1 0 
1 1025.0160076049999 299.99999999800002 -1 0 
1 599.99999999599822 0 0 -1 
1 0 0 0 -1 
1 0 0 1 0 
1 -1025.0160076049999 299.99999999800002 0 -1 
1 0 -600 1 0 
1 -1025.0160076049999 299.99999999800002 0 -1 
1 -1025.0160076049999 -299.99999999800002 1 0 
1 0 0 1 0 
1 -1025.0160076049999 -299.99999999800002 1 0 
1 0 -600 1 0 
8 -660 60
1 20 0 0 1 
8 -660 60
1 599.99999999599822 0 0 1 
8 -717.51120532350069 1742.527212928499
1 512.50800380250075 -20 1 0 
8 -717.51120532350069 1742.527212928499
1 -512.50800380250075 -299.99999999799911 1 0 
8 -60 660
1 2030.0320152099994 0 0 -1 
8 -60 660
1 0 0 0 -1 
8 -717.51120532350069 1742.527212928499
1 512.50800380250075 -580 1 0 
8 -717.51120532350069 1742.527212928499
1 -512.50800380250075 -299.99999999799911 1 0 
8 -12000000 12000000
1 579.99999999599822 0 0 -1 
8 -12000000 12000000
1 20 0 0 -1 
8 -11999850.000000002 11999850.000000002
1 149.99999999899956 -20 1 0 
8 -11999850.000000002 11999850.000000002
1 1005.0160076049979 -149.99999999899956 0 1 
8 -11999850.000000002 11999850.000000002
1 149.99999999899956 -580 1 0 
8 -11999850.000000002 11999850.000000002
1 1005.0160076049979 -149.99999999899956 0 1 
8 -12000000 12000000
1 2030.0320152099994 0 0 -1 
8 -12000000 12000000
1 20 0 0 -1 
8 -11999487.491996197 11999487.491996197
1 512.50800380249711 -20 1 0 
8 -11999487.491996197 11999487.491996197
1 512.50800380250075 279.99999999799911 -1 0 
8 -11999487.491996197 11999487.491996197
1 512.50800380249711 -580 1 0 
8 -11999487.491996197 11999487.491996197
1 512.50800380250075 279.99999999799911 -1 0 
8 -11999850.000000002 11999850.000000002
1 149.99999999899956 -20 1 0 
8 -11999850.000000002 11999850.000000002
1 -1005.0160076050015 149.99999999899956 0 -1 
8 -11999850.000000002 11999850.000000002
1 149.99999999899956 -580 1 0 
8 -11999850.000000002 11999850.000000002
1 -1005.0160076050015 149.99999999899956 0 -1 
Curves 24
1 21464.832015209999 22187.599999999999 100 0 0 1 
1 21464.832015209999 22787.599999995997 100 0 0 1 
1 2050.0320152099998 0 0 0 1 0 
1 2050.0320152099998 0 0 0 1 0 
1 19414.799999999999 22787.599999995997 100 0 0 1 
1 2050.0320152099998 599.99999999600004 0 -1 0 0 
1 2050.0320152099998 599.99999999600004 0 -1 0 0 
1 19414.799999999999 22187.599999999999 100 0 0 1 
1 0 599.99999999600004 0 0 -1 0 
1 0 599.99999999600004 0 0 -1 0 
1 0 0 0 1 0 0 
1 0 0 0 1 0 0 
1 19434.799999999999 22187.599999999999 100 0 0 -1 
1 19927.3080038025 22187.599999999999 120 1 0 0 
1 21444.832015209999 22187.599999999999 100 0 -0 1 
1 19927.3080038025 22187.599999999999 680 1 0 0 
1 21444.832015209999 22767.599999995997 100 0 0 1 
1 21444.832015209999 22337.599999998998 120 0 1 -0 
1 21444.832015209999 22337.599999998998 680 0 1 -0 
1 19434.799999999999 22767.599999995997 100 -0 0 1 
1 20952.324011407502 22767.599999995997 120 -1 0 0 
1 20952.324011407502 22767.599999995997 680 -1 0 0 
1 19434.799999999999 22637.599999996997 120 0 -1 0 
1 19434.799999999999 22637.599999996997 680 0 -1 0 
Polygon3D 0
PolygonOnTriangulations 48
2 1 2 
p 0.541672010605246 1 0 600 
2 4 3 
p 0.541672010605246 1 0 600 
2 3 4 
p 0.541672010605246 1 0 600 
2 1 2 
p 0.541672010605246 1 0 600 
2 1 3 
p 0.541672010605246 1 0 599.999999996 
2 2 3 
p 0.541672010605246 1 0 599.999999996 
2 2 4 
p 0.541672010605246 1 0 599.999999996 
2 2 3 
p 0.541672010605246 1 0 599.999999996 
2 3 4 
p 0.541672010605246 1 0 600 
2 1 2 
p 0.541672010605246 1 0 600 
2 1 3 
p 0.541672010605246 1 0 2050.03201521 
2 3 4 
p 0.541672010605246 1 0 2050.03201521 
2 2 4 
p 0.541672010605246 1 0 2050.03201521 
2 3 4 
p 0.541672010605246 1 0 2050.03201521 
2 3 4 
p 0.541672010605246 1 0 600 
2 1 2 
p 0.541672010605246 1 0 600 
2 1 3 
p 0.541672010605246 1 0 599.999999996 
2 4 1 
p 0.541672010605246 1 0 599.999999996 
2 2 4 
p 0.541672010605246 1 0 599.999999996 
2 4 1 
p 0.541672010605246 1 0 599.999999996 
2 1 2 
p 0.541672010605246 1 0 2050.03201521 
2 1 4 
p 0.541672010605246 1 0 2050.03201521 
2 1 2 
p 0.541672010605246 1 0 2050.03201521 
2 2 3 
p 0.541672010605246 1 0 2050.03201521 
2 5 6 
p 0.541672010605246 1 -580 -20 
2 4 2 
p 0.541672010605246 1 -580 -20 
2 6 7 
p 0.541672010605246 1 -492.508003802501 1517.5240114075 
2 1 2 
p 0.541672010605246 1 -492.508003802501 1517.5240114075 
2 7 8 
p 0.541672010605246 1 20 580 
2 3 4 
p 0.541672010605246 1 20 580 
2 5 8 
p 0.541672010605246 1 -492.508003802501 1517.5240114075 
2 1 2 
p 0.541672010605246 1 -492.508003802501 1517.5240114075 
2 1 2 
p 0.541672010605246 1 20 580 
2 3 4 
p 0.541672010605246 1 20 580 
2 3 1 
p 0.541672010605246 1 -149.999999999 429.999999996999 
2 2 3 
p 0.541672010605246 1 -149.999999999 429.999999996999 
2 4 2 
p 0.541672010605246 1 -149.999999999 429.999999996999 
2 2 3 
p 0.541672010605246 1 -149.999999999 429.999999996999 
2 1 2 
p 0.541672010605246 1 20 580 
2 1 3 
p 0.541672010605246 1 20 580 
2 3 1 
p 0.541672010605246 1 -492.508003802497 1517.5240114075 
2 3 4 
p 0.541672010605246 1 -492.508003802497 1517.5240114075 
2 4 2 
p 0.541672010605246 1 -492.508003802497 1517.5240114075 
2 3 4 
p 0.541672010605246 1 -492.508003802497 1517.5240114075 
2 1 2 
p 0.541672010605246 1 -129.999999999 449.999999996999 
2 4 1 
p 0.541672010605246 1 -129.999999999 449.999999996999 
2 3 4 
p 0.541672010605246 1 -129.999999999 449.999999996999 
2 4 1 
p 0.541672010605246 1 -129.999999999 449.999999996999 
Surfaces 11
1 21464.832015209999 22187.599999999999 100 -1 0 0 0 1 0 0 0 -1 
1 19414.799999999999 22187.599999999999 100 0 1 0 1 0 0 0 0 -1 
1 21464.832015209999 22787.599999995997 100 0 -1 0 -1 0 0 -0 -0 -1 
1 1025.0160076049999 299.99999999800002 0 0 0 1 1 0 -0 -0 1 0 
1 1025.0160076049999 299.99999999800002 0 0 0 1 1 0 -0 -0 1 0 
1 19414.799999999999 22787.599999995997 100 1 0 -0 0 -1 0 0 -0 -1 
1 19434.799999999999 22787.599999995997 100 1 0 -0 0 -1 0 0 -0 -1 
1 1025.0160076049999 299.99999999800002 20 0 0 1 1 0 -0 -0 1 0 
1 21444.832015209999 22187.599999999999 100 -1 0 0 0 1 0 0 0 -1 
1 1025.0160076049999 299.99999999800002 -20 0 0 1 1 0 -0 -0 1 0 
1 21464.832015209999 22767.599999995997 100 0 -1 0 -1 0 0 -0 -0 -1 
Triangulations 11
4 2 1 1.27897692436818e-12
21464.83201521 22187.6 100 21464.83201521 22187.6 700 21464.83201521 22787.599999996 100 21464.83201521 22787.599999996 700 0 0 0 -600 599.999999995998 0 599.999999995998 -600 3 1 2 3 2 4 
8 8 1 1.95399252334028e-14
19414.8 22187.6 100 19414.8 22187.6 700 21464.83201521 22187.6 700 21464.83201521 22187.6 100 19434.8 22187.6 680 19434.8 22187.6 120 21444.83201521 22187.6 120 21444.83201521 22187.6 680 0 0 0 -600 2050.03201521 -600 2050.03201521 0 20 -580 20 -20 2030.03201521 -20 2030.03201521 -580 6 1 2 6 2 5 8 5 2 3 8 2 7 8 3 4 7 3 4 1 6 4 6 7 
4 2 1 3.6737739337824e-12
21464.83201521 22787.599999996 100 21464.83201521 22787.599999996 700 19414.8 22787.599999996 100 19414.8 22787.599999996 700 0 0 0 -600 2050.03201521 0 2050.03201521 -600 3 1 2 3 2 4 
4 2 1 2.21689333557151e-12
0 0 0 2050.03201521 0 0 2050.03201521 599.999999996002 0 0 599.999999996002 0 -1025.016007605 -299.999999998 1025.016007605 -299.999999998 1025.016007605 299.999999998 -1025.016007605 299.999999998 3 1 2 3 4 1 
4 2 1 2.21689333557151e-12
0 0 0 2050.03201521 0 0 2050.03201521 599.999999996002 0 0 599.999999996002 0 -1025.016007605 -299.999999998 1025.016007605 -299.999999998 1025.016007605 299.999999998 -1025.016007605 299.999999998 3 1 2 3 4 1 
4 2 1 1.30739863379858e-12
19414.8 22787.599999996 100 19414.8 22787.599999996 700 19414.8 22187.6 100 19414.8 22187.6 700 0 0 0 -600 599.999999995998 0 599.999999995998 -600 3 1 2 3 2 4 
4 2 1 1.25055521493778e-12
19434.8 22767.599999996 120 19434.8 22187.6 120 19434.8 22767.599999996 680 19434.8 22187.6 680 19.9999999999995 -20 599.999999995999 -20 20 -580 599.999999995999 -580 2 1 3 2 3 4 
4 2 1 1.25055521493778e-12
20 0 20 2030.03201521 0 20 2030.03201521 579.999999996002 20 20 579.999999996002 20 -1005.016007605 -299.999999997999 1005.016007605 -299.999999997999 1005.016007605 279.999999997999 -1005.016007605 279.999999997999 2 4 1 3 4 2 
4 2 1 1.27897692436818e-12
21444.83201521 22767.599999996 120 21444.83201521 22767.599999996 680 21444.83201521 22187.6 120 21444.83201521 22187.6 680 579.999999995998 -20 579.999999995998 -580 -4.54747350886464e-13 -20 0 -580 1 3 4 1 4 2 
4 2 1 1.25055521493778e-12
20 0 -20 2030.03201521 0 -20 2030.03201521 579.999999996002 -20 20 579.999999996002 -20 -1005.016007605 -299.999999997999 1005.016007605 -299.999999997999 1005.016007605 279.999999997999 -1005.016007605 279.999999997999 2 4 1 3 4 2 
4 2 1 3.67377393378241e-12
19434.8 22767.599999996 120 19434.8 22767.599999996 680 21444.83201521 22767.599999996 120 21444.83201521 22767.599999996 680 2030.03201521 -20 2030.03201521 -580 20.0000000000001 -20 20 -580 1 3 4 1 4 2 

TShapes 66
Ve
0.001
21464.83201521 22187.6 100
0 0

0101101
*
Ve
0.001
21464.83201521 22187.6 700
0 0

0101101
*
Ed
 0.001 1 1 0
1  1 0 0 600
2  1 1 0 0 600
2  2 2 0 0 600
6  1 1 0
6  2 2 0
0

0101000
+66 3 -65 3 *
Ve
1e-07
21464.83201521 22787.599999996 100
0 0

0101101
*
Ve
1e-07
21464.83201521 22787.599999996 700
0 0

0101101
*
Ed
 1e-07 1 1 0
1  2 0 0 600
2  3 1 0 0 600
2  4 3 0 0 600
6  3 1 0
6  4 3 0
0

0101000
+63 3 -62 3 *
Ed
 1e-07 1 1 0
1  3 0 0 599.999999996
2  5 1 5 0 599.999999996
2  6 4 0 0 599.999999996
6  5 1 5
6  6 4 0
0

0101000
+66 6 -63 6 *
Ed
 1e-07 1 1 0
1  4 0 0 599.999999996
2  7 1 9 0 599.999999996
2  8 5 0 0 599.999999996
6  7 1 9
6  8 5 0
0

0101000
+65 10 -62 10 *
Wi

0101100
+64 0 -61 0 -60 4 +59 8 *
Fa
0  1e-07 1 0
2  1
0101000
+58 0 *
Ve
1e-07
19414.8 22787.599999996 100
0 0

0101101
*
Ve
1e-07
19414.8 22787.599999996 700
0 0

0101101
*
Ed
 1e-07 1 1 0
1  5 0 0 600
2  9 3 0 0 600
2  10 6 0 0 600
6  9 3 0
6  10 6 0
0

0101000
+56 3 -55 3 *
Ed
 1e-07 1 1 0
1  6 0 0 2050.03201521
2  11 3 5 0 2050.03201521
2  12 4 0 0 2050.03201521
6  11 3 5
6  12 4 0
0

0101000
+63 6 -56 6 *
Ed
 1e-07 1 1 0
1  7 0 0 2050.03201521
2  13 3 9 0 2050.03201521
2  14 5 0 0 2050.03201521
6  13 3 9
6  14 5 0
0

0101000
+62 10 -55 10 *
Wi

0101100
+61 0 -54 0 -53 4 +52 8 *
Fa
0  1e-07 3 0
2  3
0101000
+51 0 *
Ve
0.001
19414.8 22187.6 100
0 0

0101101
*
Ve
0.001
19414.8 22187.6 700
0 0

0101101
*
Ed
 0.001 1 1 0
1  8 0 0 600
2  15 6 0 0 600
2  16 2 0 0 600
6  15 6 0
6  16 2 0
0

0101000
+49 3 -48 3 *
Ed
 1e-07 1 1 0
1  9 0 0 599.999999996
2  17 6 5 0 599.999999996
2  18 4 0 0 599.999999996
6  17 6 5
6  18 4 0
0

0101000
+56 6 -49 6 *
Ed
 1e-07 1 1 0
1  10 0 0 599.999999996
2  19 6 9 0 599.999999996
2  20 5 0 0 599.999999996
6  19 6 9
6  20 5 0
0

0101000
+55 10 -48 10 *
Wi

0101100
+54 0 -47 0 -46 4 +45 8 *
Fa
0  1e-07 6 0
2  6
0101000
+44 0 *
Ed
 0.001 1 1 0
1  11 0 0 2050.03201521
2  21 4 0 0 2050.03201521
2  22 2 5 0 2050.03201521
6  21 4 0
6  22 2 5
0

0101000
+49 6 -66 6 *
Wi

0101100
+42 0 +60 0 +53 0 +46 0 *
Fa
0  1e-07 4 0
2  4
0101000
+41 0 *
Ed
 0.001 1 1 0
1  12 0 0 2050.03201521
2  23 5 0 0 2050.03201521
2  24 2 9 0 2050.03201521
6  23 5 0
6  24 2 9
0

0101000
+48 10 -65 10 *
Wi

0101100
+39 0 +59 0 +52 0 +45 0 *
Fa
0  1e-07 5 0
2  5
0101000
+38 0 *
Wi

0101100
+47 2 +39 12 -64 2 -42 11 *
Ve
0.001
19434.8 22187.6 680
0 0

0101101
*
Ve
0.001
19434.8 22187.6 120
0 0

0101101
*
Ed
 0.001 1 1 0
1  13 0 -580 -20
2  25 2 2 -580 -20
2  26 7 2 -580 -20
6  25 2 2
6  26 7 2
0

0101000
+35 14 -34 14 *
Ve
0.001
21444.83201521 22187.6 120
0 0

0101101
*
Ed
 0.001 1 1 0
1  14 0 -492.508003802501 1517.5240114075
2  27 2 2 -492.508003802501 1517.5240114075
2  28 8 11 -492.508003802501 1517.5240114075
6  27 2 2
6  28 8 11
0

0101000
+34 14 -32 14 *
Ve
0.001
21444.83201521 22187.6 680
0 0

0101101
*
Ed
 0.001 1 1 0
1  15 0 20 580
2  29 2 2 20 580
2  30 9 2 20 580
6  29 2 2
6  30 9 2
0

0101000
+32 14 -30 14 *
Ed
 0.001 1 1 0
1  16 0 -492.508003802501 1517.5240114075
2  31 2 2 -492.508003802501 1517.5240114075
2  32 10 12 -492.508003802501 1517.5240114075
6  31 2 2
6  32 10 12
0

0101000
+35 14 -30 14 *
Wi

0101100
+33 0 +31 0 +29 0 -28 0 *
Fa
0  1e-07 2 0
2  2
0101000
+36 13 +27 13 *
Ve
0.001
21444.83201521 22767.599999996 120
0 0

0101101
*
Ve
0.001
21444.83201521 22767.599999996 680
0 0

0101101
*
Ed
 0.001 1 1 0
1  17 0 20 580
2  33 9 2 20 580
2  34 11 2 20 580
6  33 9 2
6  34 11 2
0

0101000
+25 14 -24 14 *
Ed
 0.001 1 1 0
1  18 0 -149.999999999 429.999999996999
2  35 9 2 -149.999999999 429.999999996999
2  36 8 11 -149.999999999 429.999999996999
6  35 9 2
6  36 8 11
0

0101000
+32 14 -25 14 *
Ed
 0.001 1 1 0
1  19 0 -149.999999999 429.999999996999
2  37 9 2 -149.999999999 429.999999996999
2  38 10 12 -149.999999999 429.999999996999
6  37 9 2
6  38 10 12
0

0101000
+30 14 -24 14 *
Wi

0101100
-23 0 -22 0 +29 0 +21 0 *
Fa
0  1e-07 9 0
2  9
0101000
+20 13 *
Ve
0.001
19434.8 22767.599999996 120
0 0

0101101
*
Ve
0.001
19434.8 22767.599999996 680
0 0

0101101
*
Ed
 0.001 1 1 0
1  20 0 20 580
2  39 11 2 20 580
2  40 7 2 20 580
6  39 11 2
6  40 7 2
0

0101000
+18 14 -17 14 *
Ed
 0.001 1 1 0
1  21 0 -492.508003802497 1517.5240114075
2  41 11 2 -492.508003802497 1517.5240114075
2  42 8 11 -492.508003802497 1517.5240114075
6  41 11 2
6  42 8 11
0

0101000
+25 14 -18 14 *
Ed
 0.001 1 1 0
1  22 0 -492.508003802497 1517.5240114075
2  43 11 2 -492.508003802497 1517.5240114075
2  44 10 12 -492.508003802497 1517.5240114075
6  43 11 2
6  44 10 12
0

0101000
+24 14 -17 14 *
Wi

0101100
-16 0 -15 0 +23 0 +14 0 *
Fa
0  1e-07 11 0
2  11
0101000
+13 13 *
Ed
 0.001 1 1 0
1  23 0 -129.999999999 449.999999996999
2  45 7 2 -129.999999999 449.999999996999
2  46 8 11 -129.999999999 449.999999996999
6  45 7 2
6  46 8 11
0

0101000
+18 14 -34 14 *
Ed
 0.001 1 1 0
1  24 0 -129.999999999 449.999999996999
2  47 7 2 -129.999999999 449.999999996999
2  48 10 12 -129.999999999 449.999999996999
6  47 7 2
6  48 10 12
0

0101000
+17 14 -35 14 *
Wi

0101100
-11 0 +16 0 +10 0 +33 0 *
Fa
0  1e-07 7 0
2  7
0101000
+9 13 *
Wi

0101100
+31 0 +22 0 +15 0 +11 0 *
Fa
0  1e-07 8 0
2  8
0101000
+7 15 *
Wi

0101100
+28 0 +21 0 +14 0 +10 0 *
Fa
0  1e-07 10 0
2  10
0101000
+5 16 *
Sh

0101100
-57 2 -50 2 -43 2 -40 11 +37 12 -26 2 +19 2 +12 2 +8 2 +6 11 
-4 12 *
So

0100100
+3 0 *
Co

1100000
+2 1 *

+1 0 