DBRep_DrawableShape

CASCADE Topology V1, (c) Matra-Datavision
Locations 9
1
              1               0               0               0 
              0               1               0  -2677.78018912 
              0               0               1   3043.50149877 
2  1 -1 0
1
              0              -0               1 21617.7460693721 
              1               0              -0 18770.881156008 
              0               1               0               0 
2  3 -1 0
2  1 -1 3 -1 0
1
              1               0               0 -4003.56349051401 
              0               1               0        8.89e-13 
              0               0               1       -8.89e-13 
2  3 1 6 1 0
2  6 -1 3 -1 0
2  1 -1 6 -1 3 -1 0
Curve2ds 6
1 0 0 0 -1 
1 6.2831853071795862 0 0 -1 
1 0 0 1 0 
2 1.7e-16 1.0000000000000001e-17 1 0 -0 1 3
1 0 -4003.5634905140105 1 0 
2 1.7e-16 1.0000000000000001e-17 1 0 -0 1 3
Curves 3
1 21617.7460693721 18773.881156008007 1.5e-16 -1 2.2e-16 -2.2e-16 
2 0 0 0 0 0 1 1 0 -0 -0 1 0 3
2 0 0 0 0 0 1 1 0 -0 -0 1 0 3
Polygon3D 0
PolygonOnTriangulations 0
Surfaces 3
2 21617.7460693721 18770.881156008007 1.5e-16 1 -2.2e-16 2.2e-16 2.2e-16 1 0 -2.2e-16 4.8400000000000002e-32 1 3
1 -1.7e-16 -1.0000000000000001e-17 0 0 0 1 1 0 -0 -0 1 0 
1 -1.7e-16 -1.0000000000000001e-17 0 0 0 1 1 0 -0 -0 1 0 
Triangulations 0

TShapes 14
Ve
1e-07
21617.7460693721 16096.100966888 3043.50149877
0 0

0101101
*
Ve
1e-07
17614.1825788581 16096.100966888 3043.50149877
0 0

0101101
*
Ed
 1e-07 1 1 0
1  1 0 0 4003.56349051401
3  1 2CN 1 0 0 4003.56349051401
0

0101000
+14 2 -13 2 *
Ed
 1e-07 1 1 0
1  2 0 0 6.28318530717959
2  3 1 4 0 6.28318530717959
2  4 2 0 0 6.28318530717959
0

0101000
+14 5 -14 5 *
Ed
 1e-07 1 1 0
1  3 0 0 6.28318530717959
2  5 1 8 0 6.28318530717959
2  6 3 0 0 6.28318530717959
0

0101000
+13 9 -13 9 *
Wi

0101100
+12 0 -12 0 -11 3 +10 7 *
Fa
0  1e-07 1 0

0111000
+9 0 *
Wi

0101100
+11 0 *
Fa
0  1e-07 2 0

0111000
+7 0 *
Wi

0101100
+10 0 *
Fa
0  1e-07 3 0

0111000
+5 0 *
Sh

0101100
+8 0 +6 3 -4 7 *
So

0100000
+3 0 *
Co

1100000
+2 1 *

+1 0 